# xmcd
# 
# Track frame offsets:
#     150
#     27080
#     46673
#     63934
#     111965
#     152492
#     171483
# 
# Disc length: 2555
# 
# Revision: 0
# Processed by: cddbd v1.5.2PL0 Copyright (c) Steve Scherf et al.
# Submitted via: fre:ac v1.0.17
# 
DISCID=4f09f907
DTITLE=Guy de Maupassant - Max Volkert Martens liest Guy de Maupassant - Fettklößchen
DYEAR=2006
DGENRE=Hörbuch
TTITLE0=Fettklößchen 01
TTITLE1=Fettklößchen 02
TTITLE2=Fettklößchen 03
TTITLE3=Fettklößchen 04
TTITLE4=Fettklößchen 05
TTITLE5=Fettklößchen 06
TTITLE6=Fettklößchen 07
EXTD=Nach der Übersetzung von Georg Freiherr von Ompteda
EXTT0=
EXTT1=
EXTT2=
EXTT3=
EXTT4=
EXTT5=
EXTT6=
PLAYORDER=
